<svg width="30" height="30" viewBox="0 0 30 30" fill="none" xmlns="http://www.w3.org/2000/svg">
<path d="M5 7C5 5.89543 5.89543 5 7 5H10.5C11.6046 5 12.5 5.89543 12.5 7V10.5C12.5 11.6046 11.6046 12.5 10.5 12.5H7C5.89543 12.5 5 11.6046 5 10.5V7ZM17.5 7C17.5 5.89543 18.3954 5 19.5 5H23C24.1046 5 25 5.89543 25 7V10.5C25 11.6046 24.1046 12.5 23 12.5H19.5C18.3954 12.5 17.5 11.6046 17.5 10.5V7ZM5 19.5C5 18.3954 5.89543 17.5 7 17.5H10.5C11.6046 17.5 12.5 18.3954 12.5 19.5V23C12.5 24.1046 11.6046 25 10.5 25H7C5.89543 25 5 24.1046 5 23V19.5ZM17.5 21.25C17.5 22.2446 17.8951 23.1984 18.5983 23.9017C19.3016 24.6049 20.2554 25 21.25 25C22.2446 25 23.1984 24.6049 23.9017 23.9017C24.6049 23.1984 25 22.2446 25 21.25C25 20.2554 24.6049 19.3016 23.9017 18.5983C23.1984 17.8951 22.2446 17.5 21.25 17.5C20.2554 17.5 19.3016 17.8951 18.5983 18.5983C17.8951 19.3016 17.5 20.2554 17.5 21.25Z" stroke="#8D8D8D" stroke-width="2" stroke-linecap="round" stroke-linejoin="round"/>
</svg>
