<svg width="27" height="26" viewBox="0 0 27 26" fill="none" xmlns="http://www.w3.org/2000/svg">
<path d="M4.92006 4.33335L11.9422 13.1094C12.2496 13.4938 12.417 13.9714 12.4167 14.4636V21.6667L14.5834 20.0417V14.4625C14.5834 13.9707 14.7507 13.4935 15.0579 13.1094L22.0801 4.33335H4.92006ZM4.92006 2.16669H22.0801C22.4882 2.16674 22.8881 2.28209 23.2336 2.49945C23.5791 2.71681 23.8561 3.02735 24.0329 3.39528C24.2096 3.76322 24.2788 4.17359 24.2325 4.57913C24.1862 4.98467 24.0263 5.36889 23.7711 5.68752L16.7501 14.4625V20.0417C16.7501 20.3781 16.6717 20.7098 16.5213 21.0106C16.3709 21.3115 16.1525 21.5732 15.8834 21.775L13.7167 23.4C13.3948 23.6414 13.0121 23.7885 12.6113 23.8246C12.2106 23.8607 11.8077 23.7846 11.4478 23.6046C11.0879 23.4247 10.7852 23.1481 10.5736 22.8058C10.3621 22.4635 10.2501 22.0691 10.2501 21.6667V14.4625L3.22898 5.68752C2.97387 5.36889 2.81395 4.98467 2.76765 4.57913C2.72135 4.17359 2.79054 3.76322 2.96726 3.39528C3.14399 3.02735 3.42105 2.71681 3.76654 2.49945C4.11202 2.28209 4.51188 2.16674 4.92006 2.16669Z" fill="#222222"/>
<circle cx="4" cy="4" r="4" fill="#7C2F02"/>
</svg>
