<svg width="22" height="22" viewBox="0 0 22 22" fill="none" xmlns="http://www.w3.org/2000/svg">
<path d="M16.6228 10.0833C17.1554 15.0104 19.25 16.5 19.25 16.5H2.75C2.75 16.5 5.5 14.5448 5.5 7.7C5.5 6.14442 6.07933 4.65208 7.11058 3.55208C8.14183 2.45208 9.5425 1.83333 11 1.83333C11.3098 1.83333 11.6154 1.86083 11.9167 1.91583M12.5858 19.25C12.4247 19.5278 12.1934 19.7584 11.915 19.9187C11.6367 20.079 11.3212 20.1634 11 20.1634C10.6788 20.1634 10.3633 20.079 10.085 19.9187C9.80664 19.7584 9.57533 19.5278 9.41417 19.25M17.4167 7.33333C18.146 7.33333 18.8455 7.0436 19.3612 6.52788C19.8769 6.01215 20.1667 5.31268 20.1667 4.58333C20.1667 3.85399 19.8769 3.15452 19.3612 2.63879C18.8455 2.12307 18.146 1.83333 17.4167 1.83333C16.6873 1.83333 15.9878 2.12307 15.4721 2.63879C14.9564 3.15452 14.6667 3.85399 14.6667 4.58333C14.6667 5.31268 14.9564 6.01215 15.4721 6.52788C15.9878 7.0436 16.6873 7.33333 17.4167 7.33333Z" stroke="white" stroke-width="1.5" stroke-linecap="round" stroke-linejoin="round"/>
</svg>
