<svg width="18" height="18" viewBox="0 0 18 18" fill="none" xmlns="http://www.w3.org/2000/svg">
<path d="M5.625 15C6.24632 15 6.75 14.4963 6.75 13.875C6.75 13.2537 6.24632 12.75 5.625 12.75C5.00368 12.75 4.5 13.2537 4.5 13.875C4.5 14.4963 5.00368 15 5.625 15Z" fill="#7C2F02"/>
<path d="M12.375 15C12.9963 15 13.5 14.4963 13.5 13.875C13.5 13.2537 12.9963 12.75 12.375 12.75C11.7537 12.75 11.25 13.2537 11.25 13.875C11.25 14.4963 11.7537 15 12.375 15Z" fill="#7C2F02"/>
<path d="M2.25 3.75H3.75L4.2 6M4.2 6L5.25 11.25H12.75L14.25 6H4.2Z" stroke="#7C2F02" stroke-linecap="round" stroke-linejoin="round"/>
</svg>
