<svg width="30" height="30" viewBox="0 0 30 30" fill="none" xmlns="http://www.w3.org/2000/svg">
<path d="M16.8375 9.41253C17.0133 9.58809 17.2516 9.6867 17.5 9.6867C17.7484 9.6867 17.9867 9.58809 18.1625 9.41253L19.0625 8.51253V21.25C19.0625 21.4987 19.1613 21.7371 19.3371 21.9129C19.5129 22.0888 19.7514 22.1875 20 22.1875C20.2486 22.1875 20.4871 22.0888 20.6629 21.9129C20.8387 21.7371 20.9375 21.4987 20.9375 21.25V8.51253L21.8375 9.41253C21.9233 9.50464 22.0268 9.57852 22.1418 9.62976C22.2568 9.681 22.381 9.70855 22.5069 9.71077C22.6327 9.71299 22.7578 9.68983 22.8745 9.64268C22.9912 9.59553 23.0973 9.52535 23.1863 9.43633C23.2753 9.3473 23.3455 9.24126 23.3927 9.12453C23.4398 9.00779 23.463 8.88276 23.4607 8.75688C23.4585 8.631 23.431 8.50686 23.3797 8.39186C23.3285 8.27686 23.2546 8.17336 23.1625 8.08753L20.6625 5.58753C20.4867 5.41197 20.2484 5.31335 20 5.31335C19.7516 5.31335 19.5133 5.41197 19.3375 5.58753L16.8375 8.08753C16.6619 8.26331 16.5633 8.50159 16.5633 8.75003C16.5633 8.99847 16.6619 9.23675 16.8375 9.41253ZM10.9375 21.4875L11.8375 20.5875C11.9233 20.4954 12.0268 20.4215 12.1418 20.3703C12.2568 20.3191 12.381 20.2915 12.5069 20.2893C12.6327 20.2871 12.7578 20.3102 12.8745 20.3574C12.9912 20.4045 13.0973 20.4747 13.1863 20.5637C13.2753 20.6528 13.3455 20.7588 13.3927 20.8755C13.4398 20.9923 13.463 21.1173 13.4607 21.2432C13.4585 21.3691 13.431 21.4932 13.3797 21.6082C13.3285 21.7232 13.2546 21.8267 13.1625 21.9125L10.6625 24.4125C10.4867 24.5881 10.2484 24.6867 10 24.6867C9.75157 24.6867 9.51329 24.5881 9.33751 24.4125L6.83751 21.9125C6.7454 21.8267 6.67152 21.7232 6.62028 21.6082C6.56904 21.4932 6.54149 21.3691 6.53927 21.2432C6.53705 21.1173 6.5602 20.9923 6.60736 20.8755C6.65451 20.7588 6.72469 20.6528 6.81371 20.5637C6.90273 20.4747 7.00878 20.4045 7.12551 20.3574C7.24225 20.3102 7.36728 20.2871 7.49316 20.2893C7.61904 20.2915 7.74318 20.3191 7.85818 20.3703C7.97318 20.4215 8.07668 20.4954 8.16251 20.5875L9.06251 21.4875V8.75003C9.06251 8.50139 9.16128 8.26293 9.3371 8.08712C9.51291 7.9113 9.75137 7.81253 10 7.81253C10.2486 7.81253 10.4871 7.9113 10.6629 8.08712C10.8387 8.26293 10.9375 8.50139 10.9375 8.75003V21.4875Z" fill="#222222"/>
</svg>
